<?xml version="1.0" encoding="UTF-8" standalone="no"?>
<!DOCTYPE svg PUBLIC "-//W3C//DTD SVG 1.1//EN" "http://www.w3.org/Graphics/SVG/1.1/DTD/svg11.dtd">
<svg width="100%" height="100%" viewBox="0 0 64 64" version="1.1" xmlns="http://www.w3.org/2000/svg" xmlns:xlink="http://www.w3.org/1999/xlink" xml:space="preserve" style="fill-rule:evenodd;clip-rule:evenodd;stroke-linecap:round;stroke-linejoin:round;stroke-miterlimit:10;">
    <g id="Layer_2">
        <g>
            <g>
                <circle cx="32" cy="32" r="30" style="fill:none;stroke:rgb(163,163,163);stroke-width:2px;"/>
                <path d="M20.5,12.2C29.2,7 40.7,8.2 48.2,15.7C52.6,20.1 54.8,25.8 54.9,31.6" style="fill:none;fill-rule:nonzero;stroke:rgb(163,163,163);stroke-width:2px;"/>
                <path d="M38.1,53.7C30.5,55.8 22,53.8 16,47.8C13.4,45.2 11.6,42.2 10.5,39" style="fill:none;fill-rule:nonzero;stroke:rgb(163,163,163);stroke-width:2px;"/>
                <path d="M51.7,43.3C50.7,44.9 49.6,46.4 48.2,47.8C47.2,48.8 46,49.8 44.8,50.6" style="fill:none;fill-rule:nonzero;stroke:rgb(163,163,163);stroke-width:2px;"/>
            </g>
            <g transform="matrix(1,0,0,1,10.4905,-4.4508)">
                <g transform="matrix(48,0,0,48,18.4881,52.8047)">
                    <path d="M0.022,-0.087L0.02,-0.084L0.02,-0.074L0.033,-0.087L0.022,-0.087ZM0.048,-0.087L0.02,-0.058L0.02,-0.048L0.059,-0.087L0.048,-0.087ZM0.028,-0.146L0.039,-0.146L0.107,-0.214L0.107,-0.224L0.028,-0.146ZM0.075,-0.087L0.02,-0.032L0.02,-0.022L0.085,-0.087L0.075,-0.087ZM0.054,-0.146L0.064,-0.146L0.107,-0.188L0.107,-0.198L0.054,-0.146ZM0.02,-0.189L0.02,-0.179L0.107,-0.266L0.107,-0.276L0.02,-0.189ZM0.02,-0.215L0.02,-0.205L0.107,-0.292L0.107,-0.303L0.02,-0.215ZM0.02,-0.163L0.02,-0.153L0.107,-0.24L0.107,-0.25L0.02,-0.163ZM0.081,-0.146L0.091,-0.146L0.107,-0.162L0.107,-0.172L0.081,-0.146ZM0.106,-0.146L0.107,-0.146L0.106,-0.146ZM0.02,-0.346L0.02,-0.336L0.107,-0.423L0.107,-0.434L0.02,-0.346ZM0.02,-0.32L0.02,-0.31L0.107,-0.397L0.107,-0.407L0.02,-0.32ZM0.02,-0.268L0.02,-0.257L0.107,-0.345L0.107,-0.355L0.02,-0.268ZM0.02,-0.294L0.02,-0.284L0.107,-0.371L0.107,-0.381L0.02,-0.294ZM0.02,-0.242L0.02,-0.231L0.107,-0.318L0.107,-0.329L0.02,-0.242ZM0.02,-0.373L0.02,-0.362L0.107,-0.449L0.107,-0.459L0.02,-0.373ZM0.02,-0.425L0.02,-0.415L0.107,-0.502L0.107,-0.512L0.02,-0.425ZM0.02,-0.451L0.02,-0.44L0.107,-0.528L0.107,-0.538L0.02,-0.451ZM0.02,-0.398L0.02,-0.388L0.107,-0.476L0.107,-0.486L0.02,-0.398ZM0.101,-0.087L0.02,-0.006L0.02,-0L0.024,-0L0.107,-0.083L0.107,-0.087L0.101,-0.087ZM0.02,-0.556L0.02,-0.545L0.107,-0.633L0.107,-0.643L0.02,-0.556ZM0.02,-0.503L0.02,-0.493L0.107,-0.58L0.107,-0.59L0.02,-0.503ZM0.02,-0.529L0.02,-0.519L0.107,-0.606L0.107,-0.617L0.02,-0.529ZM0.02,-0.477L0.02,-0.467L0.107,-0.554L0.107,-0.564L0.02,-0.477ZM0.02,-0.582L0.02,-0.571L0.107,-0.659L0.107,-0.669L0.02,-0.582ZM0.02,-0.608L0.02,-0.598L0.107,-0.685L0.107,-0.695L0.02,-0.608ZM0.057,-0.698L0.02,-0.66L0.02,-0.65L0.067,-0.698L0.057,-0.698ZM0.031,-0.698L0.02,-0.687L0.02,-0.676L0.042,-0.698L0.031,-0.698ZM0.083,-0.698L0.02,-0.634L0.02,-0.624L0.094,-0.698L0.083,-0.698ZM0.04,-0L0.05,-0L0.107,-0.057L0.107,-0.067L0.04,-0ZM0.066,-0L0.076,-0L0.107,-0.031L0.107,-0.041L0.066,-0ZM0.092,-0L0.103,-0L0.107,-0.004L0.107,-0.015L0.092,-0Z" style="fill:rgb(163,163,163);fill-rule:nonzero;"/>
                </g>
            </g>
        </g>
    </g>
</svg>
