<?xml version="1.0" encoding="UTF-8" standalone="no"?>
<!DOCTYPE svg PUBLIC "-//W3C//DTD SVG 1.1//EN" "http://www.w3.org/Graphics/SVG/1.1/DTD/svg11.dtd">
<svg width="100%" height="100%" viewBox="0 0 99 69" version="1.1" xmlns="http://www.w3.org/2000/svg" xmlns:xlink="http://www.w3.org/1999/xlink" xml:space="preserve" xmlns:serif="http://www.serif.com/" style="fill-rule:evenodd;clip-rule:evenodd;">
    <g id="ArtBoard1" transform="matrix(0.994938,0,0,1.08669,-0.506055,-20.04)">
        <rect x="0.509" y="18.441" width="98.8" height="62.863" style="fill:none;"/>
        <clipPath id="_clip1">
            <rect x="0.509" y="18.441" width="98.8" height="62.863"/>
        </clipPath>
        <g clip-path="url(#_clip1)">
            <g transform="matrix(0.669364,0,0,0.626201,0.725794,18.5569)">
                <circle cx="50" cy="50" r="45" style="fill:white;stroke:rgb(60,121,10);stroke-width:10px;"/>
            </g>
            <g transform="matrix(0.669364,0,0,0.626201,0.725794,18.5569)">
                <path d="M38,38C38,26 62,23 61,36C61,45 45,49 45,59L45,66L55,66L55,62C55,53 72,50 72,35C70,13 27,13 27,38L38,38ZM45,70L55,70L55,80L45,80" style="fill:rgb(60,121,10);fill-rule:nonzero;"/>
            </g>
            <g transform="matrix(0.669364,0,0,0.626201,32.2295,18.4334)">
                <circle cx="50" cy="50" r="45" style="fill:white;stroke:black;stroke-width:10px;"/>
            </g>
            <g transform="matrix(1.00509,0,0,0.920224,12.2976,17.0816)">
                <g transform="matrix(60,0,0,60,41.1518,55.4136)">
                    <path d="M0.262,-0.237L0.144,-0.237L0.1,-0.712L0.306,-0.712L0.262,-0.237ZM0.119,-0L0.119,-0.161L0.287,-0.161L0.287,-0L0.119,-0Z" style="fill-rule:nonzero;"/>
                </g>
            </g>
        </g>
    </g>
</svg>
