<svg xmlns="http://www.w3.org/2000/svg" fill-rule="evenodd" stroke-linecap="round" stroke-linejoin="round" stroke-miterlimit="10" clip-rule="evenodd" viewBox="0 0 64 64">
  <defs/>
  <g fill="none" stroke="#a3a3a3" stroke-width="2">
    <circle cx="32" cy="32" r="30"/>
    <path d="M20.5 12.2c8.7-5.2 20.2-4 27.7 3.5 4.4 4.4 6.6 10.1 6.7 15.9M38.1 53.7c-7.6 2.1-16.1.1-22.1-5.9-2.6-2.6-4.4-5.6-5.5-8.8M51.7 43.3c-1 1.6-2.1 3.1-3.5 4.5-1 1-2.2 2-3.4 2.8"/>
  </g>
  <path fill="#a3a3a3" fill-rule="nonzero" d="M30.035 44.178l-.096.144v.48l.624-.624h-.528zm1.248 0l-1.344 1.392v.48l1.872-1.872h-.528zm-.96-2.832h.528l3.264-3.264v-.48l-3.792 3.744zm2.256 2.832l-2.64 2.64v.48l3.12-3.12h-.48zm-1.008-2.832h.48l2.064-2.016v-.48l-2.544 2.496zm-1.632-2.064v.48l4.176-4.176v-.48l-4.176 4.176zm0-1.248v.48l4.176-4.176v-.528l-4.176 4.224zm0 2.496v.48l4.176-4.176v-.48l-4.176 4.176zm2.928.816h.48l.768-.768v-.48l-1.248 1.248zm1.2 0h.048-.048zm-4.128-9.6v.48l4.176-4.176v-.528l-4.176 4.224zm0 1.248v.48l4.176-4.176v-.48l-4.176 4.176zm0 2.496v.528l4.176-4.224v-.48l-4.176 4.176zm0-1.248v.48l4.176-4.176v-.48l-4.176 4.176zm0 2.496v.528l4.176-4.176v-.528l-4.176 4.176zm0-6.288v.528l4.176-4.176v-.48l-4.176 4.128zm0-2.496v.48l4.176-4.176v-.48l-4.176 4.176zm0-1.248v.528l4.176-4.224v-.48l-4.176 4.176zm0 2.544v.48l4.176-4.224v-.48l-4.176 4.224zm3.888 14.928l-3.888 3.888v.288h.192l3.984-3.984v-.192h-.288zm-3.888-22.512v.528l4.176-4.224v-.48l-4.176 4.176zm0 2.544v.48l4.176-4.176v-.48l-4.176 4.176zm0-1.248v.48l4.176-4.176v-.528l-4.176 4.224zm0 2.496v.48l4.176-4.176v-.48l-4.176 4.176zm0-5.04v.528l4.176-4.224v-.48l-4.176 4.176zm0-1.248v.48l4.176-4.176v-.48l-4.176 4.176zm1.776-4.32l-1.776 1.824v.48l2.256-2.304h-.48zm-1.248 0l-.528.528v.528l1.056-1.056h-.528zm2.496 0l-3.024 3.072v.48l3.552-3.552h-.528zm-2.064 33.504h.48l2.736-2.736v-.48l-3.216 3.216zm1.248 0h.48l1.488-1.488v-.48l-1.968 1.968zm1.248 0h.528l.192-.192v-.528l-.72.72z"/>
</svg>
