<?xml version="1.0" encoding="UTF-8" standalone="no"?>
<!DOCTYPE svg PUBLIC "-//W3C//DTD SVG 1.1//EN" "http://www.w3.org/Graphics/SVG/1.1/DTD/svg11.dtd">
<svg width="100%" height="100%" viewBox="0 0 696 160" version="1.1" xmlns="http://www.w3.org/2000/svg" xmlns:xlink="http://www.w3.org/1999/xlink" xml:space="preserve" xmlns:serif="http://www.serif.com/" style="fill-rule:evenodd;clip-rule:evenodd;stroke-linejoin:round;stroke-miterlimit:2;">
    <g transform="matrix(1.01039,0,0,1.04251,-7.22685,-6.78621)">
        <path d="M695.247,21.343C695.247,13.622 688.78,7.354 680.814,7.354L22.316,7.354C14.35,7.354 7.883,13.622 7.883,21.343L7.883,145.653C7.883,153.373 14.35,159.641 22.316,159.641L680.814,159.641C688.78,159.641 695.247,153.373 695.247,145.653L695.247,21.343Z" style="fill:white;"/>
    </g>
    <g transform="matrix(1,0,0,1,-1.14979,4.51303)">
        <g transform="matrix(36,0,0,36,18.9437,37.7809)">
            <path d="M0.789,-0L0.789,-0.667L0.589,-0.667L0.427,-0.264L0.265,-0.667L0.066,-0.667L0.066,-0L0.208,-0L0.208,-0.467L0.396,-0L0.458,-0L0.646,-0.467L0.646,-0L0.789,-0Z" style="fill:rgb(0,35,148);fill-rule:nonzero;"/>
        </g>
        <g transform="matrix(36,0,0,36,50.0117,37.7809)">
            <path d="M0.29,0.012C0.365,0.012 0.441,-0.011 0.489,-0.055L0.433,-0.137C0.402,-0.107 0.345,-0.089 0.304,-0.089C0.222,-0.089 0.173,-0.14 0.165,-0.201L0.524,-0.201L0.524,-0.229C0.524,-0.387 0.426,-0.495 0.282,-0.495C0.135,-0.495 0.032,-0.382 0.032,-0.242C0.032,-0.087 0.143,0.012 0.29,0.012ZM0.401,-0.287L0.163,-0.287C0.169,-0.335 0.203,-0.394 0.282,-0.394C0.366,-0.394 0.398,-0.333 0.401,-0.287Z" style="fill:rgb(0,35,148);fill-rule:nonzero;"/>
        </g>
        <g transform="matrix(36,0,0,36,70.2077,37.7809)">
            <path d="M0.225,0.012C0.278,0.012 0.312,-0.002 0.331,-0.019L0.304,-0.115C0.297,-0.108 0.279,-0.101 0.26,-0.101C0.232,-0.101 0.216,-0.124 0.216,-0.154L0.216,-0.372L0.314,-0.372L0.314,-0.483L0.216,-0.483L0.216,-0.615L0.088,-0.615L0.088,-0.483L0.008,-0.483L0.008,-0.372L0.088,-0.372L0.088,-0.12C0.088,-0.034 0.136,0.012 0.225,0.012Z" style="fill:rgb(0,35,148);fill-rule:nonzero;"/>
        </g>
        <g transform="matrix(36,0,0,36,82.6637,37.7809)">
            <path d="M0.48,-0L0.48,-0.312C0.48,-0.451 0.379,-0.495 0.269,-0.495C0.193,-0.495 0.117,-0.471 0.058,-0.419L0.106,-0.334C0.147,-0.372 0.195,-0.391 0.247,-0.391C0.311,-0.391 0.353,-0.359 0.353,-0.31L0.353,-0.245C0.321,-0.283 0.264,-0.304 0.2,-0.304C0.123,-0.304 0.032,-0.261 0.032,-0.148C0.032,-0.04 0.123,0.012 0.2,0.012C0.263,0.012 0.32,-0.011 0.353,-0.05L0.353,-0L0.48,-0ZM0.251,-0.074C0.201,-0.074 0.16,-0.1 0.16,-0.145C0.16,-0.192 0.201,-0.218 0.251,-0.218C0.292,-0.218 0.332,-0.204 0.353,-0.176L0.353,-0.116C0.332,-0.088 0.292,-0.074 0.251,-0.074Z" style="fill:rgb(0,35,148);fill-rule:nonzero;"/>
        </g>
        <g transform="matrix(36,0,0,36,99.1157,37.7809)">
            <path d="M0.363,-0L0.363,-0.542L0.557,-0.542L0.557,-0.667L0.025,-0.667L0.025,-0.542L0.22,-0.542L0.22,-0L0.363,-0Z" style="fill:rgb(0,35,148);fill-rule:nonzero;"/>
        </g>
        <g transform="matrix(36,0,0,36,117.548,37.7809)">
            <path d="M0.48,-0L0.48,-0.312C0.48,-0.451 0.379,-0.495 0.269,-0.495C0.193,-0.495 0.117,-0.471 0.058,-0.419L0.106,-0.334C0.147,-0.372 0.195,-0.391 0.247,-0.391C0.311,-0.391 0.353,-0.359 0.353,-0.31L0.353,-0.245C0.321,-0.283 0.264,-0.304 0.2,-0.304C0.123,-0.304 0.032,-0.261 0.032,-0.148C0.032,-0.04 0.123,0.012 0.2,0.012C0.263,0.012 0.32,-0.011 0.353,-0.05L0.353,-0L0.48,-0ZM0.251,-0.074C0.201,-0.074 0.16,-0.1 0.16,-0.145C0.16,-0.192 0.201,-0.218 0.251,-0.218C0.292,-0.218 0.332,-0.204 0.353,-0.176L0.353,-0.116C0.332,-0.088 0.292,-0.074 0.251,-0.074Z" style="fill:rgb(0,35,148);fill-rule:nonzero;"/>
        </g>
        <g transform="matrix(36,0,0,36,137.384,37.7809)">
            <path d="M0.261,0.196C0.38,0.196 0.522,0.151 0.522,-0.033L0.522,-0.483L0.394,-0.483L0.394,-0.421C0.355,-0.47 0.303,-0.495 0.245,-0.495C0.123,-0.495 0.032,-0.407 0.032,-0.249C0.032,-0.088 0.124,-0.003 0.245,-0.003C0.304,-0.003 0.356,-0.031 0.394,-0.079L0.394,-0.03C0.394,0.065 0.322,0.092 0.261,0.092C0.2,0.092 0.149,0.075 0.11,0.032L0.053,0.124C0.114,0.177 0.178,0.196 0.261,0.196ZM0.285,-0.116C0.213,-0.116 0.163,-0.166 0.163,-0.249C0.163,-0.332 0.213,-0.382 0.285,-0.382C0.327,-0.382 0.373,-0.359 0.394,-0.327L0.394,-0.171C0.373,-0.14 0.327,-0.116 0.285,-0.116Z" style="fill:rgb(0,35,148);fill-rule:nonzero;"/>
        </g>
        <g transform="matrix(36,0,0,36,168.236,37.7809)">
            <path d="M0.329,-0C0.538,-0 0.683,-0.132 0.683,-0.333C0.683,-0.534 0.538,-0.667 0.329,-0.667L0.066,-0.667L0.066,-0L0.329,-0ZM0.329,-0.125L0.208,-0.125L0.208,-0.542L0.329,-0.542C0.466,-0.542 0.538,-0.451 0.538,-0.333C0.538,-0.22 0.461,-0.125 0.329,-0.125Z" style="fill:rgb(0,35,148);fill-rule:nonzero;"/>
        </g>
        <g transform="matrix(36,0,0,36,194.372,37.7809)">
            <path d="M0.287,0.012C0.447,0.012 0.543,-0.104 0.543,-0.242C0.543,-0.379 0.447,-0.495 0.287,-0.495C0.128,-0.495 0.032,-0.379 0.032,-0.242C0.032,-0.104 0.128,0.012 0.287,0.012ZM0.287,-0.101C0.208,-0.101 0.164,-0.166 0.164,-0.242C0.164,-0.317 0.208,-0.382 0.287,-0.382C0.366,-0.382 0.411,-0.317 0.411,-0.242C0.411,-0.166 0.366,-0.101 0.287,-0.101Z" style="fill:rgb(0,35,148);fill-rule:nonzero;"/>
        </g>
        <g transform="matrix(36,0,0,36,215.324,37.7809)">
            <path d="M0.288,0.012C0.387,0.012 0.447,-0.031 0.479,-0.076L0.396,-0.153C0.373,-0.121 0.338,-0.101 0.294,-0.101C0.217,-0.101 0.163,-0.158 0.163,-0.242C0.163,-0.326 0.217,-0.382 0.294,-0.382C0.338,-0.382 0.373,-0.364 0.396,-0.33L0.479,-0.408C0.447,-0.452 0.387,-0.495 0.288,-0.495C0.139,-0.495 0.032,-0.39 0.032,-0.242C0.032,-0.093 0.139,0.012 0.288,0.012Z" style="fill:rgb(0,35,148);fill-rule:nonzero;"/>
        </g>
        <g transform="matrix(36,0,0,36,233.576,37.7809)">
            <path d="M0.237,0.012C0.371,0.012 0.446,-0.055 0.446,-0.143C0.446,-0.338 0.16,-0.278 0.16,-0.35C0.16,-0.377 0.19,-0.398 0.236,-0.398C0.295,-0.398 0.35,-0.373 0.379,-0.342L0.43,-0.429C0.382,-0.467 0.317,-0.495 0.235,-0.495C0.108,-0.495 0.037,-0.424 0.037,-0.343C0.037,-0.153 0.324,-0.218 0.324,-0.138C0.324,-0.108 0.298,-0.086 0.243,-0.086C0.183,-0.086 0.111,-0.119 0.076,-0.152L0.021,-0.063C0.072,-0.016 0.153,0.012 0.237,0.012Z" style="fill:rgb(0,35,148);fill-rule:nonzero;"/>
        </g>
        <g transform="matrix(36,0,0,36,260.54,37.7809)">
            <rect x="0.03" y="-0.296" width="0.24" height="0.108" style="fill:rgb(0,35,148);fill-rule:nonzero;"/>
        </g>
        <g transform="matrix(36,0,0,36,281.132,37.7809)">
            <path d="M0.219,-0L0.219,-0.372L0.317,-0.372L0.317,-0.483L0.219,-0.483L0.219,-0.509C0.219,-0.554 0.244,-0.577 0.279,-0.577C0.302,-0.577 0.319,-0.57 0.332,-0.557L0.38,-0.632C0.349,-0.665 0.3,-0.677 0.254,-0.677C0.157,-0.677 0.091,-0.612 0.091,-0.509L0.091,-0.483L0.011,-0.483L0.011,-0.372L0.091,-0.372L0.091,-0L0.219,-0Z" style="fill:rgb(0,35,148);fill-rule:nonzero;"/>
        </g>
        <g transform="matrix(36,0,0,36,293.192,37.7809)">
            <path d="M0.48,-0L0.48,-0.312C0.48,-0.451 0.379,-0.495 0.269,-0.495C0.193,-0.495 0.117,-0.471 0.058,-0.419L0.106,-0.334C0.147,-0.372 0.195,-0.391 0.247,-0.391C0.311,-0.391 0.353,-0.359 0.353,-0.31L0.353,-0.245C0.321,-0.283 0.264,-0.304 0.2,-0.304C0.123,-0.304 0.032,-0.261 0.032,-0.148C0.032,-0.04 0.123,0.012 0.2,0.012C0.263,0.012 0.32,-0.011 0.353,-0.05L0.353,-0L0.48,-0ZM0.251,-0.074C0.201,-0.074 0.16,-0.1 0.16,-0.145C0.16,-0.192 0.201,-0.218 0.251,-0.218C0.292,-0.218 0.332,-0.204 0.353,-0.176L0.353,-0.116C0.332,-0.088 0.292,-0.074 0.251,-0.074Z" style="fill:rgb(0,35,148);fill-rule:nonzero;"/>
        </g>
        <g transform="matrix(36,0,0,36,313.028,37.7809)">
            <path d="M0.284,-0.101C0.212,-0.101 0.162,-0.158 0.162,-0.242C0.162,-0.325 0.212,-0.382 0.284,-0.382C0.325,-0.382 0.372,-0.358 0.393,-0.327L0.393,-0.156C0.372,-0.126 0.325,-0.101 0.284,-0.101ZM0.244,0.012C0.301,0.012 0.354,-0.012 0.393,-0.062L0.393,0.184L0.521,0.184L0.521,-0.483L0.393,-0.483L0.393,-0.422C0.356,-0.469 0.303,-0.495 0.244,-0.495C0.12,-0.495 0.03,-0.403 0.03,-0.242C0.03,-0.081 0.12,0.012 0.244,0.012Z" style="fill:rgb(0,35,148);fill-rule:nonzero;"/>
        </g>
        <g transform="matrix(36,0,0,36,334.304,37.7809)">
            <path d="M0.128,0.011C0.172,0.011 0.209,-0.026 0.209,-0.07C0.209,-0.114 0.172,-0.151 0.128,-0.151C0.084,-0.151 0.047,-0.114 0.047,-0.07C0.047,-0.026 0.084,0.011 0.128,0.011Z" style="fill:rgb(0,35,148);fill-rule:nonzero;"/>
        </g>
        <g transform="matrix(36,0,0,36,345.248,37.7809)">
            <path d="M0.126,-0.535C0.168,-0.535 0.202,-0.569 0.202,-0.611C0.202,-0.653 0.168,-0.686 0.126,-0.686C0.085,-0.686 0.05,-0.653 0.05,-0.611C0.05,-0.569 0.085,-0.535 0.126,-0.535ZM0.018,0.196C0.134,0.196 0.19,0.123 0.19,0.013L0.19,-0.483L0.063,-0.483L0.063,0.013C0.063,0.067 0.036,0.092 -0.003,0.092C-0.032,0.092 -0.049,0.083 -0.068,0.067L-0.103,0.162C-0.068,0.186 -0.043,0.196 0.018,0.196Z" style="fill:rgb(0,35,148);fill-rule:nonzero;"/>
        </g>
        <g transform="matrix(36,0,0,36,354.644,37.7809)">
            <path d="M0.287,0.012C0.447,0.012 0.543,-0.104 0.543,-0.242C0.543,-0.379 0.447,-0.495 0.287,-0.495C0.128,-0.495 0.032,-0.379 0.032,-0.242C0.032,-0.104 0.128,0.012 0.287,0.012ZM0.287,-0.101C0.208,-0.101 0.164,-0.166 0.164,-0.242C0.164,-0.317 0.208,-0.382 0.287,-0.382C0.366,-0.382 0.411,-0.317 0.411,-0.242C0.411,-0.166 0.366,-0.101 0.287,-0.101Z" style="fill:rgb(0,35,148);fill-rule:nonzero;"/>
        </g>
        <g transform="matrix(36,0,0,36,375.596,37.7809)">
            <path d="M0.535,-0L0.338,-0.264L0.529,-0.483L0.373,-0.483L0.19,-0.268L0.19,-0.667L0.063,-0.667L0.063,-0L0.19,-0L0.19,-0.124L0.248,-0.186L0.376,-0L0.535,-0Z" style="fill:rgb(0,35,148);fill-rule:nonzero;"/>
        </g>
        <g transform="matrix(36,0,0,36,394.928,37.7809)">
            <path d="M0.29,0.012C0.365,0.012 0.441,-0.011 0.489,-0.055L0.433,-0.137C0.402,-0.107 0.345,-0.089 0.304,-0.089C0.222,-0.089 0.173,-0.14 0.165,-0.201L0.524,-0.201L0.524,-0.229C0.524,-0.387 0.426,-0.495 0.282,-0.495C0.135,-0.495 0.032,-0.382 0.032,-0.242C0.032,-0.087 0.143,0.012 0.29,0.012ZM0.401,-0.287L0.163,-0.287C0.169,-0.335 0.203,-0.394 0.282,-0.394C0.366,-0.394 0.398,-0.333 0.401,-0.287Z" style="fill:rgb(0,35,148);fill-rule:nonzero;"/>
        </g>
        <g transform="matrix(36,0,0,36,415.124,37.7809)">
            <path d="M0.516,-0L0.516,-0.341C0.516,-0.435 0.465,-0.495 0.359,-0.495C0.28,-0.495 0.221,-0.457 0.19,-0.42L0.19,-0.483L0.063,-0.483L0.063,-0L0.19,-0L0.19,-0.325C0.211,-0.354 0.25,-0.382 0.3,-0.382C0.354,-0.382 0.389,-0.359 0.389,-0.292L0.389,-0L0.516,-0Z" style="fill:rgb(0,35,148);fill-rule:nonzero;"/>
        </g>
        <g transform="matrix(36,0,0,36,436.256,37.7809)">
            <path d="M0.29,0.012C0.365,0.012 0.441,-0.011 0.489,-0.055L0.433,-0.137C0.402,-0.107 0.345,-0.089 0.304,-0.089C0.222,-0.089 0.173,-0.14 0.165,-0.201L0.524,-0.201L0.524,-0.229C0.524,-0.387 0.426,-0.495 0.282,-0.495C0.135,-0.495 0.032,-0.382 0.032,-0.242C0.032,-0.087 0.143,0.012 0.29,0.012ZM0.401,-0.287L0.163,-0.287C0.169,-0.335 0.203,-0.394 0.282,-0.394C0.366,-0.394 0.398,-0.333 0.401,-0.287Z" style="fill:rgb(0,35,148);fill-rule:nonzero;"/>
        </g>
        <g transform="matrix(36,0,0,36,456.452,37.7809)">
            <path d="M0.225,0.012C0.278,0.012 0.312,-0.002 0.331,-0.019L0.304,-0.115C0.297,-0.108 0.279,-0.101 0.26,-0.101C0.232,-0.101 0.216,-0.124 0.216,-0.154L0.216,-0.372L0.314,-0.372L0.314,-0.483L0.216,-0.483L0.216,-0.615L0.088,-0.615L0.088,-0.483L0.008,-0.483L0.008,-0.372L0.088,-0.372L0.088,-0.12C0.088,-0.034 0.136,0.012 0.225,0.012Z" style="fill:rgb(0,35,148);fill-rule:nonzero;"/>
        </g>
        <g transform="matrix(36,0,0,36,468.908,37.7809)">
            <path d="M0.622,-0L0.769,-0.483L0.637,-0.483L0.547,-0.158L0.441,-0.483L0.328,-0.483L0.222,-0.158L0.132,-0.483L0,-0.483L0.147,-0L0.283,-0L0.385,-0.329L0.487,-0L0.622,-0Z" style="fill:rgb(0,35,148);fill-rule:nonzero;"/>
        </g>
        <g transform="matrix(36,0,0,36,496.88,37.7809)">
            <path d="M0.287,0.012C0.447,0.012 0.543,-0.104 0.543,-0.242C0.543,-0.379 0.447,-0.495 0.287,-0.495C0.128,-0.495 0.032,-0.379 0.032,-0.242C0.032,-0.104 0.128,0.012 0.287,0.012ZM0.287,-0.101C0.208,-0.101 0.164,-0.166 0.164,-0.242C0.164,-0.317 0.208,-0.382 0.287,-0.382C0.366,-0.382 0.411,-0.317 0.411,-0.242C0.411,-0.166 0.366,-0.101 0.287,-0.101Z" style="fill:rgb(0,35,148);fill-rule:nonzero;"/>
        </g>
        <g transform="matrix(36,0,0,36,517.832,37.7809)">
            <path d="M0.19,-0L0.19,-0.319C0.211,-0.35 0.267,-0.374 0.309,-0.374C0.323,-0.374 0.335,-0.373 0.344,-0.371L0.344,-0.495C0.284,-0.495 0.224,-0.46 0.19,-0.417L0.19,-0.483L0.063,-0.483L0.063,-0L0.19,-0Z" style="fill:rgb(0,35,148);fill-rule:nonzero;"/>
        </g>
        <g transform="matrix(36,0,0,36,531.08,37.7809)">
            <path d="M0.535,-0L0.338,-0.264L0.529,-0.483L0.373,-0.483L0.19,-0.268L0.19,-0.667L0.063,-0.667L0.063,-0L0.19,-0L0.19,-0.124L0.248,-0.186L0.376,-0L0.535,-0Z" style="fill:rgb(0,35,148);fill-rule:nonzero;"/>
        </g>
        <g transform="matrix(36,0,0,36,550.628,37.7809)">
            <path d="M0.128,0.011C0.172,0.011 0.209,-0.026 0.209,-0.07C0.209,-0.114 0.172,-0.151 0.128,-0.151C0.084,-0.151 0.047,-0.114 0.047,-0.07C0.047,-0.026 0.084,0.011 0.128,0.011Z" style="fill:rgb(0,35,148);fill-rule:nonzero;"/>
        </g>
        <g transform="matrix(36,0,0,36,559.988,37.7809)">
            <path d="M0.523,-0L0.523,-0.667L0.395,-0.667L0.395,-0.421C0.357,-0.47 0.303,-0.495 0.246,-0.495C0.123,-0.495 0.032,-0.399 0.032,-0.241C0.032,-0.08 0.124,0.012 0.246,0.012C0.304,0.012 0.357,-0.014 0.395,-0.062L0.395,-0L0.523,-0ZM0.285,-0.101C0.213,-0.101 0.163,-0.158 0.163,-0.241C0.163,-0.325 0.213,-0.382 0.285,-0.382C0.328,-0.382 0.374,-0.359 0.395,-0.327L0.395,-0.156C0.374,-0.124 0.328,-0.101 0.285,-0.101Z" style="fill:rgb(0,35,148);fill-rule:nonzero;"/>
        </g>
        <g transform="matrix(36,0,0,36,581.372,37.7809)">
            <path d="M0.29,0.012C0.365,0.012 0.441,-0.011 0.489,-0.055L0.433,-0.137C0.402,-0.107 0.345,-0.089 0.304,-0.089C0.222,-0.089 0.173,-0.14 0.165,-0.201L0.524,-0.201L0.524,-0.229C0.524,-0.387 0.426,-0.495 0.282,-0.495C0.135,-0.495 0.032,-0.382 0.032,-0.242C0.032,-0.087 0.143,0.012 0.29,0.012ZM0.401,-0.287L0.163,-0.287C0.169,-0.335 0.203,-0.394 0.282,-0.394C0.366,-0.394 0.398,-0.333 0.401,-0.287Z" style="fill:rgb(0,35,148);fill-rule:nonzero;"/>
        </g>
    </g>
    <g transform="matrix(1,0,0,1,-1.14979,53.513)">
        <g transform="matrix(30,0,0,30,18.9437,33.7789)">
            <path d="M0.477,-0L0.477,-0.341C0.477,-0.446 0.424,-0.495 0.323,-0.495C0.25,-0.495 0.184,-0.453 0.15,-0.413L0.15,-0.667L0.075,-0.667L0.075,-0L0.15,-0L0.15,-0.353C0.179,-0.392 0.235,-0.428 0.293,-0.428C0.358,-0.428 0.402,-0.403 0.402,-0.318L0.402,-0L0.477,-0Z" style="fill:rgb(0,107,33);fill-rule:nonzero;"/>
        </g>
        <g transform="matrix(30,0,0,30,34.9937,33.7789)">
            <path d="M0.197,0.012C0.241,0.012 0.268,-0.001 0.287,-0.019L0.265,-0.075C0.255,-0.064 0.235,-0.055 0.214,-0.055C0.181,-0.055 0.165,-0.081 0.165,-0.117L0.165,-0.417L0.263,-0.417L0.263,-0.483L0.165,-0.483L0.165,-0.615L0.09,-0.615L0.09,-0.483L0.01,-0.483L0.01,-0.417L0.09,-0.417L0.09,-0.101C0.09,-0.029 0.126,0.012 0.197,0.012Z" style="fill:rgb(0,107,33);fill-rule:nonzero;"/>
        </g>
        <g transform="matrix(30,0,0,30,43.3037,33.7789)">
            <path d="M0.197,0.012C0.241,0.012 0.268,-0.001 0.287,-0.019L0.265,-0.075C0.255,-0.064 0.235,-0.055 0.214,-0.055C0.181,-0.055 0.165,-0.081 0.165,-0.117L0.165,-0.417L0.263,-0.417L0.263,-0.483L0.165,-0.483L0.165,-0.615L0.09,-0.615L0.09,-0.483L0.01,-0.483L0.01,-0.417L0.09,-0.417L0.09,-0.101C0.09,-0.029 0.126,0.012 0.197,0.012Z" style="fill:rgb(0,107,33);fill-rule:nonzero;"/>
        </g>
        <g transform="matrix(30,0,0,30,51.6137,33.7789)">
            <path d="M0.313,0.012C0.44,0.012 0.528,-0.086 0.528,-0.242C0.528,-0.399 0.44,-0.495 0.313,-0.495C0.245,-0.495 0.185,-0.46 0.15,-0.411L0.15,-0.483L0.075,-0.483L0.075,0.184L0.15,0.184L0.15,-0.073C0.189,-0.019 0.247,0.012 0.313,0.012ZM0.294,-0.055C0.235,-0.055 0.176,-0.091 0.15,-0.133L0.15,-0.351C0.176,-0.393 0.235,-0.428 0.294,-0.428C0.391,-0.428 0.449,-0.349 0.449,-0.242C0.449,-0.135 0.391,-0.055 0.294,-0.055Z" style="fill:rgb(0,107,33);fill-rule:nonzero;"/>
        </g>
        <g transform="matrix(30,0,0,30,68.2637,33.7789)">
            <path d="M0.228,0.012C0.353,0.012 0.418,-0.053 0.418,-0.134C0.418,-0.322 0.119,-0.252 0.119,-0.358C0.119,-0.401 0.16,-0.434 0.226,-0.434C0.288,-0.434 0.341,-0.408 0.37,-0.373L0.405,-0.425C0.366,-0.464 0.308,-0.495 0.226,-0.495C0.111,-0.495 0.046,-0.431 0.046,-0.356C0.046,-0.177 0.345,-0.249 0.345,-0.132C0.345,-0.084 0.305,-0.049 0.231,-0.049C0.165,-0.049 0.104,-0.081 0.072,-0.118L0.033,-0.064C0.082,-0.012 0.149,0.012 0.228,0.012Z" style="fill:rgb(0,107,33);fill-rule:nonzero;"/>
        </g>
        <g transform="matrix(30,0,0,30,81.7037,33.7789)">
            <path d="M0.115,-0.38C0.145,-0.38 0.17,-0.405 0.17,-0.435C0.17,-0.465 0.145,-0.49 0.115,-0.49C0.085,-0.49 0.06,-0.465 0.06,-0.435C0.06,-0.405 0.085,-0.38 0.115,-0.38ZM0.115,0.01C0.145,0.01 0.17,-0.015 0.17,-0.045C0.17,-0.075 0.145,-0.1 0.115,-0.1C0.085,-0.1 0.06,-0.075 0.06,-0.045C0.06,-0.015 0.085,0.01 0.115,0.01Z" style="fill:rgb(0,107,33);fill-rule:nonzero;"/>
        </g>
        <g transform="matrix(30,0,0,30,88.0937,33.7789)">
            <path d="M0.059,0.02L0.296,-0.687L0.237,-0.687L0,0.02L0.059,0.02Z" style="fill:rgb(0,107,33);fill-rule:nonzero;"/>
        </g>
        <g transform="matrix(30,0,0,30,96.4637,33.7789)">
            <path d="M0.059,0.02L0.296,-0.687L0.237,-0.687L0,0.02L0.059,0.02Z" style="fill:rgb(0,107,33);fill-rule:nonzero;"/>
        </g>
        <g transform="matrix(30,0,0,30,104.834,33.7789)">
            <path d="M0.171,-0L0.171,-0.417L0.269,-0.417L0.269,-0.483L0.171,-0.483L0.171,-0.52C0.171,-0.581 0.198,-0.615 0.247,-0.615C0.272,-0.615 0.291,-0.605 0.307,-0.591L0.338,-0.64C0.308,-0.668 0.274,-0.677 0.236,-0.677C0.15,-0.677 0.096,-0.619 0.096,-0.52L0.096,-0.483L0.016,-0.483L0.016,-0.417L0.096,-0.417L0.096,-0L0.171,-0Z" style="fill:rgb(0,107,33);fill-rule:nonzero;"/>
        </g>
        <g transform="matrix(30,0,0,30,112.814,33.7789)">
            <path d="M0.452,-0L0.452,-0.332C0.452,-0.449 0.367,-0.495 0.265,-0.495C0.186,-0.495 0.124,-0.469 0.072,-0.415L0.107,-0.363C0.15,-0.409 0.197,-0.43 0.255,-0.43C0.325,-0.43 0.377,-0.393 0.377,-0.328L0.377,-0.241C0.338,-0.286 0.283,-0.307 0.217,-0.307C0.135,-0.307 0.048,-0.256 0.048,-0.148C0.048,-0.043 0.135,0.012 0.217,0.012C0.282,0.012 0.337,-0.011 0.377,-0.055L0.377,-0L0.452,-0ZM0.244,-0.042C0.174,-0.042 0.125,-0.086 0.125,-0.147C0.125,-0.209 0.174,-0.253 0.244,-0.253C0.297,-0.253 0.348,-0.233 0.377,-0.193L0.377,-0.102C0.348,-0.062 0.297,-0.042 0.244,-0.042Z" style="fill:rgb(0,107,33);fill-rule:nonzero;"/>
        </g>
        <g transform="matrix(30,0,0,30,128.114,33.7789)">
            <path d="M0.277,-0.055C0.18,-0.055 0.123,-0.135 0.123,-0.242C0.123,-0.349 0.18,-0.428 0.277,-0.428C0.337,-0.428 0.396,-0.393 0.421,-0.351L0.421,-0.133C0.396,-0.091 0.337,-0.055 0.277,-0.055ZM0.259,0.012C0.324,0.012 0.382,-0.019 0.421,-0.073L0.421,0.184L0.496,0.184L0.496,-0.483L0.421,-0.483L0.421,-0.411C0.387,-0.46 0.327,-0.495 0.259,-0.495C0.132,-0.495 0.044,-0.399 0.044,-0.242C0.044,-0.086 0.132,0.012 0.259,0.012Z" style="fill:rgb(0,107,33);fill-rule:nonzero;"/>
        </g>
        <g transform="matrix(30,0,0,30,144.764,33.7789)">
            <path d="M0.115,0.01C0.145,0.01 0.17,-0.015 0.17,-0.045C0.17,-0.075 0.145,-0.1 0.115,-0.1C0.085,-0.1 0.06,-0.075 0.06,-0.045C0.06,-0.015 0.085,0.01 0.115,0.01Z" style="fill:rgb(0,107,33);fill-rule:nonzero;"/>
        </g>
        <g transform="matrix(30,0,0,30,152.354,33.7789)">
            <path d="M0.112,-0.552C0.14,-0.552 0.163,-0.574 0.163,-0.602C0.163,-0.63 0.14,-0.653 0.112,-0.653C0.085,-0.653 0.062,-0.63 0.062,-0.602C0.062,-0.574 0.085,-0.552 0.112,-0.552ZM0.007,0.196C0.099,0.196 0.15,0.142 0.15,0.047L0.15,-0.483L0.075,-0.483L0.075,0.047C0.075,0.108 0.042,0.134 -0.003,0.134C-0.033,0.134 -0.055,0.12 -0.072,0.103L-0.099,0.16C-0.068,0.184 -0.042,0.196 0.007,0.196Z" style="fill:rgb(0,107,33);fill-rule:nonzero;"/>
        </g>
        <g transform="matrix(30,0,0,30,158.594,33.7789)">
            <path d="M0.286,0.012C0.433,0.012 0.525,-0.102 0.525,-0.242C0.525,-0.382 0.433,-0.495 0.286,-0.495C0.139,-0.495 0.047,-0.382 0.047,-0.242C0.047,-0.102 0.139,0.012 0.286,0.012ZM0.286,-0.055C0.183,-0.055 0.125,-0.143 0.125,-0.242C0.125,-0.34 0.183,-0.428 0.286,-0.428C0.389,-0.428 0.446,-0.34 0.446,-0.242C0.446,-0.143 0.389,-0.055 0.286,-0.055Z" style="fill:rgb(0,107,33);fill-rule:nonzero;"/>
        </g>
        <g transform="matrix(30,0,0,30,175.244,33.7789)">
            <path d="M0.5,-0L0.285,-0.264L0.499,-0.483L0.404,-0.483L0.15,-0.226L0.15,-0.667L0.075,-0.667L0.075,-0L0.15,-0L0.15,-0.138L0.23,-0.217L0.404,-0L0.5,-0Z" style="fill:rgb(0,107,33);fill-rule:nonzero;"/>
        </g>
        <g transform="matrix(30,0,0,30,190.064,33.7789)">
            <path d="M0.293,0.012C0.372,0.012 0.437,-0.014 0.485,-0.062L0.449,-0.111C0.411,-0.072 0.355,-0.05 0.3,-0.05C0.196,-0.05 0.132,-0.126 0.126,-0.217L0.517,-0.217L0.517,-0.236C0.517,-0.381 0.431,-0.495 0.285,-0.495C0.147,-0.495 0.047,-0.382 0.047,-0.242C0.047,-0.091 0.15,0.012 0.293,0.012ZM0.443,-0.272L0.126,-0.272C0.13,-0.346 0.181,-0.433 0.284,-0.433C0.394,-0.433 0.442,-0.344 0.443,-0.272Z" style="fill:rgb(0,107,33);fill-rule:nonzero;"/>
        </g>
        <g transform="matrix(30,0,0,30,206.444,33.7789)">
            <path d="M0.476,-0L0.476,-0.339C0.476,-0.444 0.423,-0.495 0.322,-0.495C0.25,-0.495 0.184,-0.453 0.15,-0.413L0.15,-0.483L0.075,-0.483L0.075,-0L0.15,-0L0.15,-0.353C0.178,-0.392 0.234,-0.428 0.293,-0.428C0.358,-0.428 0.401,-0.401 0.401,-0.316L0.401,-0L0.476,-0Z" style="fill:rgb(0,107,33);fill-rule:nonzero;"/>
        </g>
        <g transform="matrix(30,0,0,30,222.464,33.7789)">
            <path d="M0.293,0.012C0.372,0.012 0.437,-0.014 0.485,-0.062L0.449,-0.111C0.411,-0.072 0.355,-0.05 0.3,-0.05C0.196,-0.05 0.132,-0.126 0.126,-0.217L0.517,-0.217L0.517,-0.236C0.517,-0.381 0.431,-0.495 0.285,-0.495C0.147,-0.495 0.047,-0.382 0.047,-0.242C0.047,-0.091 0.15,0.012 0.293,0.012ZM0.443,-0.272L0.126,-0.272C0.13,-0.346 0.181,-0.433 0.284,-0.433C0.394,-0.433 0.442,-0.344 0.443,-0.272Z" style="fill:rgb(0,107,33);fill-rule:nonzero;"/>
        </g>
        <g transform="matrix(30,0,0,30,238.844,33.7789)">
            <path d="M0.197,0.012C0.241,0.012 0.268,-0.001 0.287,-0.019L0.265,-0.075C0.255,-0.064 0.235,-0.055 0.214,-0.055C0.181,-0.055 0.165,-0.081 0.165,-0.117L0.165,-0.417L0.263,-0.417L0.263,-0.483L0.165,-0.483L0.165,-0.615L0.09,-0.615L0.09,-0.483L0.01,-0.483L0.01,-0.417L0.09,-0.417L0.09,-0.101C0.09,-0.029 0.126,0.012 0.197,0.012Z" style="fill:rgb(0,107,33);fill-rule:nonzero;"/>
        </g>
        <g transform="matrix(30,0,0,30,247.154,33.7789)">
            <path d="M0.568,-0L0.722,-0.483L0.644,-0.483L0.526,-0.098L0.399,-0.483L0.335,-0.483L0.208,-0.098L0.09,-0.483L0.012,-0.483L0.166,-0L0.241,-0L0.367,-0.388L0.493,-0L0.568,-0Z" style="fill:rgb(0,107,33);fill-rule:nonzero;"/>
        </g>
        <g transform="matrix(30,0,0,30,268.664,33.7789)">
            <path d="M0.286,0.012C0.433,0.012 0.525,-0.102 0.525,-0.242C0.525,-0.382 0.433,-0.495 0.286,-0.495C0.139,-0.495 0.047,-0.382 0.047,-0.242C0.047,-0.102 0.139,0.012 0.286,0.012ZM0.286,-0.055C0.183,-0.055 0.125,-0.143 0.125,-0.242C0.125,-0.34 0.183,-0.428 0.286,-0.428C0.389,-0.428 0.446,-0.34 0.446,-0.242C0.446,-0.143 0.389,-0.055 0.286,-0.055Z" style="fill:rgb(0,107,33);fill-rule:nonzero;"/>
        </g>
        <g transform="matrix(30,0,0,30,285.314,33.7789)">
            <path d="M0.15,-0L0.15,-0.342C0.172,-0.381 0.235,-0.419 0.281,-0.419C0.293,-0.419 0.302,-0.418 0.311,-0.416L0.311,-0.493C0.245,-0.493 0.189,-0.456 0.15,-0.405L0.15,-0.483L0.075,-0.483L0.075,-0L0.15,-0Z" style="fill:rgb(0,107,33);fill-rule:nonzero;"/>
        </g>
        <g transform="matrix(30,0,0,30,294.704,33.7789)">
            <path d="M0.5,-0L0.285,-0.264L0.499,-0.483L0.404,-0.483L0.15,-0.226L0.15,-0.667L0.075,-0.667L0.075,-0L0.15,-0L0.15,-0.138L0.23,-0.217L0.404,-0L0.5,-0Z" style="fill:rgb(0,107,33);fill-rule:nonzero;"/>
        </g>
        <g transform="matrix(30,0,0,30,309.614,33.7789)">
            <path d="M0.115,0.01C0.145,0.01 0.17,-0.015 0.17,-0.045C0.17,-0.075 0.145,-0.1 0.115,-0.1C0.085,-0.1 0.06,-0.075 0.06,-0.045C0.06,-0.015 0.085,0.01 0.115,0.01Z" style="fill:rgb(0,107,33);fill-rule:nonzero;"/>
        </g>
        <g transform="matrix(30,0,0,30,315.794,33.7789)">
            <path d="M0.5,-0L0.5,-0.667L0.425,-0.667L0.425,-0.41C0.386,-0.463 0.327,-0.495 0.262,-0.495C0.135,-0.495 0.047,-0.395 0.047,-0.241C0.047,-0.084 0.136,0.012 0.262,0.012C0.33,0.012 0.389,-0.023 0.425,-0.072L0.425,-0L0.5,-0ZM0.28,-0.055C0.183,-0.055 0.125,-0.134 0.125,-0.241C0.125,-0.348 0.183,-0.428 0.28,-0.428C0.34,-0.428 0.398,-0.392 0.425,-0.35L0.425,-0.131C0.398,-0.089 0.34,-0.055 0.28,-0.055Z" style="fill:rgb(0,107,33);fill-rule:nonzero;"/>
        </g>
        <g transform="matrix(30,0,0,30,332.534,33.7789)">
            <path d="M0.293,0.012C0.372,0.012 0.437,-0.014 0.485,-0.062L0.449,-0.111C0.411,-0.072 0.355,-0.05 0.3,-0.05C0.196,-0.05 0.132,-0.126 0.126,-0.217L0.517,-0.217L0.517,-0.236C0.517,-0.381 0.431,-0.495 0.285,-0.495C0.147,-0.495 0.047,-0.382 0.047,-0.242C0.047,-0.091 0.15,0.012 0.293,0.012ZM0.443,-0.272L0.126,-0.272C0.13,-0.346 0.181,-0.433 0.284,-0.433C0.394,-0.433 0.442,-0.344 0.443,-0.272Z" style="fill:rgb(0,107,33);fill-rule:nonzero;"/>
        </g>
    </g>
    <g transform="matrix(-0.999859,0.016819,-0.016819,-0.999859,1090.46,91.222)">
        <path d="M461.632,55.837L473.526,76.983L449.737,76.983L461.632,55.837Z" style="fill:rgb(47,47,47);"/>
    </g>
</svg>
